# xmcd CD database file
#
# Track frame offsets:
#	150
#	16954
#	33498
#	54702
#	74129
#	96416
#	109716
#	120553
#	138703
#
# Disc length: 2028 seconds
#
# Revision: 0
# Processed by: cddbd v1.5PL3 Copyright (c) Steve Scherf et al.
# Submitted via: CDex 1.50
#
DISCID=8607ea09
DTITLE=Martyna Jakubowicz - Maquillage
DYEAR=1998
DGENRE=Blues
TTITLE0=Kiedy bede stara kobieta
TTITLE1=Stlucz szybe i wyrzuc klucz
TTITLE2=W domach z betonu nie ma wolnej milosci
TTITLE3=Albo cacy albo lili
TTITLE4=Wladco swiatla, wladco ciemnosci
TTITLE5=Ktora to faza
TTITLE6=Kretyni i osly
TTITLE7=Blues o zuzytych butach
TTITLE8=Rosa taka sama od lat
EXTD=YEAR: 1998
EXTT0=
EXTT1=
EXTT2=
EXTT3=
EXTT4=
EXTT5=
EXTT6=
EXTT7=
EXTT8=
PLAYORDER=
